<svg xmlns="http://www.w3.org/2000/svg" width="115.137" height="36.756" viewBox="0 0 115.137 36.756">
  <g id="claro" transform="translate(-685.075 -452.22)">
    <path id="Caminho_6839" data-name="Caminho 6839" d="M704.735,468.831l-15.594.145a4.1,4.1,0,0,0-3.455,6.238l7.783,12.7,8.15-.075,6.789-13.018a4.1,4.1,0,0,0-3.671-5.993Z" transform="translate(0 -13.131)" fill="#f2eff4"/>
    <path id="União_1" data-name="União 1" d="M3221.221,22577.8l-1.2-1.949,3.768-7.23,2.392-.023a3.38,3.38,0,0,1,3.026,4.941l-2.119,4.059a3.374,3.374,0,0,1-5.871.2Zm-5.576-9.105,8.149-.074-3.768,7.225Z" transform="translate(-2522.175 -22093.91)" fill="#21ffb5"/>
    <path id="Caminho_6842" data-name="Caminho 6842" d="M819.93,583.057a5.381,5.381,0,0,1,10.411-1.749H829.8a4.744,4.744,0,1,0,0,3.5h.542a5.381,5.381,0,0,1-10.411-1.748Z" transform="translate(-106.616 -99.307)" fill="#f2eff4"/>
    <path id="Caminho_6843" data-name="Caminho 6843" d="M887.122,581.911a3.71,3.71,0,0,1,4.039-4.081c2.391,0,4.021,1.346,4.021,4.081v.18h-.5v-.18a3.519,3.519,0,1,0-7.036,0v6.11h-.523v-6.11Z" transform="translate(-159.737 -99.307)" fill="#f2eff4"/>
    <path id="Caminho_6844" data-name="Caminho 6844" d="M940.12,583.057a5.338,5.338,0,0,1,10.673,0v.04H940.662a4.859,4.859,0,0,0,9.144,2.13h.563a5.393,5.393,0,0,1-10.25-2.172Zm10.131-.442a4.822,4.822,0,0,0-9.588,0Z" transform="translate(-201.639 -99.307)" fill="#f2eff4"/>
    <path id="Caminho_6845" data-name="Caminho 6845" d="M1006.26,583.057a5.337,5.337,0,0,1,10.673.04v4.925h-.5v-2.814a4.974,4.974,0,0,1-4.843,3.076A5.1,5.1,0,0,1,1006.26,583.057Zm10.152,0a4.8,4.8,0,1,0-4.8,4.743A4.586,4.586,0,0,0,1016.412,583.057Z" transform="translate(-253.929 -99.307)" fill="#f2eff4"/>
    <path id="Caminho_6846" data-name="Caminho 6846" d="M1076.24,572.191V562.28h.523V565.8h6.433v.463h-6.433v5.93a3.248,3.248,0,1,0,6.494,0v-.161h.482v.161a3.749,3.749,0,1,1-7.5,0Z" transform="translate(-309.255 -87.013)" fill="#f2eff4"/>
    <path id="Caminho_6847" data-name="Caminho 6847" d="M1128.27,583.057a5.347,5.347,0,1,1,5.346,5.227A5.1,5.1,0,0,1,1128.27,583.057Zm10.152,0a4.8,4.8,0,1,0-4.8,4.743A4.585,4.585,0,0,0,1138.422,583.057Z" transform="translate(-350.39 -99.307)" fill="#f2eff4"/>
    <path id="Caminho_6848" data-name="Caminho 6848" d="M1196.422,581.911a3.71,3.71,0,0,1,4.039-4.081c2.391,0,4.02,1.346,4.02,4.081v.18h-.5v-.18a3.519,3.519,0,1,0-7.036,0v6.11h-.523v-6.11Z" transform="translate(-404.27 -99.307)" fill="#f2eff4"/>
    <path id="Caminho_6849" data-name="Caminho 6849" d="M836.37,467.133l-1.841,4.125a7.378,7.378,0,0,1-.766,1.4.827.827,0,0,1-.645.36.767.767,0,0,1-.6-.291,9.7,9.7,0,0,1-.775-1.351q-.606-1.165-1.005-2.071l-2.025-4.554q-.415-.952-.873-.951c-.327,0-.507.27-.536.812q-.107,1.809-.107,3.344a10.122,10.122,0,0,0,.153,2.163,1.03,1.03,0,0,0,.285.49,6.21,6.21,0,0,0,.959.553.933.933,0,0,1,.507.9q0,1.718-4.4,1.717-3.713,0-3.711-1.671a.848.848,0,0,1,.193-.622,4.383,4.383,0,0,1,.988-.576,1.274,1.274,0,0,0,.683-.628,6.08,6.08,0,0,0,.3-1.55q.138-1.228.262-4.027t.124-4.793a9.906,9.906,0,0,0-.383-3.39,1.322,1.322,0,0,0-.314-.461,3.454,3.454,0,0,0-.668-.4q-1.09-.521-1.089-1.351a1.43,1.43,0,0,1,.406-.982,2.189,2.189,0,0,1,1.081-.628,12.37,12.37,0,0,1,1.8-.346,15.478,15.478,0,0,1,1.91-.147,8.332,8.332,0,0,1,2.777.322,1.57,1.57,0,0,1,.628.415,6.4,6.4,0,0,1,.66,1.074l3.189,5.874a7.531,7.531,0,0,0,.72,1.181.717.717,0,0,0,.553.216.763.763,0,0,0,.544-.23,3.416,3.416,0,0,0,.559-.859L838.077,456q.4-.814.521-1.057a5.307,5.307,0,0,1,1.487-2.04,6.277,6.277,0,0,1,3.4-.66q4.341,0,4.341,1.979a1.325,1.325,0,0,1-.17.714,2.81,2.81,0,0,1-.691.651,2.4,2.4,0,0,0-.89,1.55,32.057,32.057,0,0,0-.352,5.153,56.074,56.074,0,0,0,.369,6.856,2.228,2.228,0,0,0,.285.982,4.349,4.349,0,0,0,.988.783,1.13,1.13,0,0,1,.553.982q0,1.074-1.426,1.518a7.02,7.02,0,0,1-1.55.322q-.814.075-2.5.077a15.012,15.012,0,0,1-3.865-.369q-1.41-.415-1.411-1.411a.952.952,0,0,1,.184-.605,7.582,7.582,0,0,1,.951-.867,1.966,1.966,0,0,0,.544-1.242,23,23,0,0,0,.147-3.128,6.93,6.93,0,0,0-.115-1.61.472.472,0,0,0-.484-.383q-.43,0-.829.59a18.874,18.874,0,0,0-1.2,2.354Z" transform="translate(-107.454)" fill="#21ffb5"/>
    <path id="Caminho_6850" data-name="Caminho 6850" d="M956.115,480.74a8.465,8.465,0,0,1,4.923,1.457,7.815,7.815,0,0,1,2.44,2.714,7.536,7.536,0,0,1,.951,3.65,6.928,6.928,0,0,1-3.053,5.66,10.7,10.7,0,0,1-6.671,2.224,8.321,8.321,0,0,1-5.934-2.086,6.827,6.827,0,0,1-2.209-5.277,7.424,7.424,0,0,1,2.7-5.92,10.168,10.168,0,0,1,6.856-2.423Zm-1.227,3.543a1.32,1.32,0,0,0-1.081.5,2.041,2.041,0,0,0-.406,1.326,12.556,12.556,0,0,0,.346,2.509,18.914,18.914,0,0,0,.821,2.814,1.633,1.633,0,0,0,1.55,1.258q1.363,0,1.365-1.734a14.4,14.4,0,0,0-.346-2.93,12.1,12.1,0,0,0-.836-2.668,1.625,1.625,0,0,0-1.411-1.074Z" transform="translate(-206.73 -22.548)" fill="#21ffb5"/>
    <path id="Caminho_6851" data-name="Caminho 6851" d="M1039.532,485.951l-3.972,7.729a12.046,12.046,0,0,1-1.564,2.492,1.875,1.875,0,0,1-1.38.7,1.448,1.448,0,0,1-1.166-.521,12,12,0,0,1-1.642-2.362l-4.355-8.267a3.528,3.528,0,0,0-.683-.974,2.159,2.159,0,0,0-.913-.452c-.777-.224-1.166-.645-1.166-1.258s.48-1.078,1.441-1.365a17.4,17.4,0,0,1,4.554-.429,14.379,14.379,0,0,1,3.843.375q1.234.377,1.235,1.158a1.425,1.425,0,0,1-.582,1.057,3.112,3.112,0,0,0-.475.507.791.791,0,0,0-.107.429,4.358,4.358,0,0,0,.674,1.734q.675,1.181,1.258,1.181a.782.782,0,0,0,.628-.291,11.2,11.2,0,0,0,.89-1.5,3.268,3.268,0,0,0,.475-1.351,1.4,1.4,0,0,0-.49-.873,1.571,1.571,0,0,1-.521-1.028c0-.49.325-.844.974-1.057a11.2,11.2,0,0,1,3.2-.322q3.129,0,3.128,1.351,0,.782-1.12,1.135a2.963,2.963,0,0,0-1.189.6,8.119,8.119,0,0,0-.974,1.61Z" transform="translate(-266.919 -22.943)" fill="#21ffb5"/>
    <path id="Caminho_6852" data-name="Caminho 6852" d="M1120.621,460.508v8.91a4.527,4.527,0,0,0,.193,1.55,2.074,2.074,0,0,0,.775.9,2.6,2.6,0,0,1,.637.576,1.062,1.062,0,0,1,.161.605q0,1.979-5.015,1.979a16.916,16.916,0,0,1-4.278-.429,1.745,1.745,0,0,1-.867-.536,1.3,1.3,0,0,1-.329-.873,1.073,1.073,0,0,1,.17-.645,4.718,4.718,0,0,1,.859-.737,1.956,1.956,0,0,0,.674-1.15,10.594,10.594,0,0,0,.2-2.377q0-.506-.069-1.893t-.1-1.619a1.273,1.273,0,0,0-.859-.965,1.326,1.326,0,0,1-.951-1.227q0-.967,1.242-1.441a28.428,28.428,0,0,1,3.681-1.12,14.425,14.425,0,0,1,3.036-.461c.561,0,.844.316.844.951Zm-3.036-6.718a3.9,3.9,0,0,1,2.117.5,1.526,1.526,0,0,1,.783,1.342,2.1,2.1,0,0,1-1.181,1.872,8.847,8.847,0,0,1-4.525,1.089,3.226,3.226,0,0,1-1.78-.429,1.72,1.72,0,0,1-.89-1.533q0-1.319,1.887-2.071a9.7,9.7,0,0,1,3.589-.766Z" transform="translate(-337.385 -1.241)" fill="#21ffb5"/>
    <path id="Caminho_6853" data-name="Caminho 6853" d="M1173.049,489.215h-7.208c-.316,0-.475.138-.475.415a2.463,2.463,0,0,0,1.081,1.878,3.605,3.605,0,0,0,2.324.882,5.49,5.49,0,0,0,1.633-.283,5.3,5.3,0,0,0,1.48-.7,1.627,1.627,0,0,1,.829-.369,1.047,1.047,0,0,1,.783.49,1.625,1.625,0,0,1,.383,1.011,2.793,2.793,0,0,1-1.38,2.132,9.139,9.139,0,0,1-5.629,1.826,8.025,8.025,0,0,1-5.4-1.872,7.673,7.673,0,0,1-1.748-2.224,7.783,7.783,0,0,1-.9-3.65,7.454,7.454,0,0,1,1.564-4.632,8.232,8.232,0,0,1,3.436-2.653,8.638,8.638,0,0,1,3.39-.66,7.614,7.614,0,0,1,4.954,1.656,6.619,6.619,0,0,1,1.656,1.964,5.147,5.147,0,0,1,.72,2.515,2.94,2.94,0,0,1-.415,1.633,1.24,1.24,0,0,1-1.074.637Zm-6.81-2.869h1.55c.653,0,.982-.3.982-.9a1.93,1.93,0,0,0-.475-1.351,1.6,1.6,0,0,0-1.242-.521,1.579,1.579,0,0,0-1.351.674,2.149,2.149,0,0,0-.461,1.273.8.8,0,0,0,.222.645A1.232,1.232,0,0,0,1166.239,486.346Z" transform="translate(-374.543 -22.603)" fill="#21ffb5"/>
  </g>
</svg>